<svg width="22" height="24" viewBox="0 0 22 24" fill="none" xmlns="http://www.w3.org/2000/svg">
<path fill-rule="evenodd" clip-rule="evenodd" d="M0 12.9416C0 8.09024 3.10759 3.96848 7.43078 2.47841C7.53081 1.68624 7.73713 0.916233 8.04808 0.184404C8.13988 -0.0316295 8.46325 -0.0629452 8.67353 0.117513L10.7346 1.88643C10.8228 1.88433 10.9113 1.88327 11 1.88327C13.1746 1.88327 15.202 2.51773 16.909 3.61258L20.3062 2.50131C20.5109 2.43433 20.7343 2.55386 20.7364 2.73708C20.7498 3.96619 20.4235 5.1802 19.7849 6.28553C21.1755 8.13733 22 10.4427 22 12.9416C22 19.049 17.0751 24 11 24C4.92488 24 0 19.049 0 12.9416ZM14.3937 15.7614L16.7299 14.9711C17.144 14.831 17.4505 15.3618 17.1221 15.6504L15.2696 17.2784C14.9794 17.5335 14.862 17.9331 14.9683 18.3046L15.4882 20.122C15.6027 20.5223 15.1055 20.8094 14.8161 20.51L13.5296 19.1796C13.247 18.8873 12.8155 18.7952 12.4382 18.9467L9.09854 20.2872C8.66927 20.4595 8.33871 19.8869 8.70256 19.6013L11.5333 17.3793C11.8531 17.1283 11.9891 16.7086 11.8773 16.3177L11.3683 14.5383C11.2538 14.138 11.751 13.8509 12.0404 14.1503L13.3544 15.5092C13.623 15.787 14.0277 15.8852 14.3937 15.7614ZM6.76718 7.04447C7.2031 7.19286 7.4369 7.66868 7.28939 8.10722L6.62281 10.089C6.4753 10.5275 6.00233 10.7627 5.56641 10.6143C5.13048 10.4659 4.89668 9.9901 5.04419 9.55155L5.71078 7.56982C5.85829 7.13128 6.33126 6.89607 6.76718 7.04447ZM11.4336 8.38573C11.8695 8.53415 12.1033 9.00997 11.9558 9.44851L11.2891 11.4302C11.1416 11.8688 10.6686 12.104 10.2327 11.9555C9.79681 11.8071 9.56302 11.3313 9.71055 10.8928L10.3772 8.91106C10.5247 8.47252 10.9977 8.23732 11.4336 8.38573Z" fill="white"/>
</svg>
